<svg viewBox="0 0 256 256" xmlns="http://www.w3.org/2000/svg" role="img" aria-label="go-bootloaders">
  <defs>
    <linearGradient id="gocyan" x1="0" y1="0" x2="1" y2="1">
      <stop offset="0" stop-color="#22CCE2"/>
      <stop offset="1" stop-color="#0079A8"/>
    </linearGradient>
  </defs>
  <rect width="256" height="256" rx="56" fill="url(#gocyan)"/>
  <g fill="none" stroke="#FFFFFF" stroke-width="13" stroke-linecap="round" stroke-linejoin="round">
    <path d="M128 48c24 20 36 48 36 80a36 36 0 0 1-72 0c0-32 12-60 36-80Z"/>
    <circle cx="128" cy="116" r="15"/>
    <path d="M90 164c-13 6-21 17-21 31M166 164c13 6 21 17 21 31"/>
    <path d="M117 170C121 194 124 205 128 222C132 205 135 194 139 170Z"/>
  </g>
</svg>
